<svg width="16" height="16" viewBox="0 0 16 16" fill="none" xmlns="http://www.w3.org/2000/svg">
<path id="redo" d="M12.2 6.01299H5.9C4.85 6.01299 3.9375 6.34632 3.1625 7.01299C2.3875 7.67966 2 8.51299 2 9.51299C2 10.513 2.3875 11.3463 3.1625 12.013C3.9375 12.6797 4.85 13.013 5.9 13.013H12C12.2833 13.013 12.5208 13.1088 12.7125 13.3005C12.9042 13.4922 13 13.7297 13 14.013C13 14.2963 12.9042 14.5338 12.7125 14.7255C12.5208 14.9172 12.2833 15.013 12 15.013H5.9C4.28333 15.013 2.89583 14.488 1.7375 13.438C0.579167 12.388 0 11.0797 0 9.51299C0 7.94632 0.579167 6.63799 1.7375 5.58799C2.89583 4.53799 4.28333 4.01299 5.9 4.01299H12.2L10.3 2.11299C10.1167 1.92966 10.025 1.69632 10.025 1.41299C10.025 1.12966 10.1167 0.896322 10.3 0.712988C10.4833 0.529655 10.7167 0.437988 11 0.437988C11.2833 0.437988 11.5167 0.529655 11.7 0.712988L15.3 4.31299C15.4 4.41299 15.4708 4.52132 15.5125 4.63799C15.5542 4.75466 15.575 4.87966 15.575 5.01299C15.575 5.14632 15.5542 5.27132 15.5125 5.38799C15.4708 5.50466 15.4 5.61299 15.3 5.71299L11.7 9.31299C11.5167 9.49632 11.2833 9.58799 11 9.58799C10.7167 9.58799 10.4833 9.49632 10.3 9.31299C10.1167 9.12965 10.025 8.89632 10.025 8.61299C10.025 8.32966 10.1167 8.09632 10.3 7.91299L12.2 6.01299Z" fill="#5A189A"/>
</svg>
