<svg width="16" height="16" viewBox="0 0 16 16" fill="none" xmlns="http://www.w3.org/2000/svg">
<path id="undo" d="M4.00005 15.013C3.71672 15.013 3.47922 14.9172 3.28755 14.7255C3.09588 14.5338 3.00005 14.2963 3.00005 14.013C3.00005 13.7297 3.09588 13.4922 3.28755 13.3005C3.47922 13.1088 3.71672 13.013 4.00005 13.013H10.1C11.15 13.013 12.0625 12.6797 12.8375 12.013C13.6125 11.3463 14 10.513 14 9.51299C14 8.51299 13.6125 7.67966 12.8375 7.01299C12.0625 6.34632 11.15 6.01299 10.1 6.01299H3.80005L5.70005 7.91299C5.88338 8.09632 5.97505 8.32966 5.97505 8.61299C5.97505 8.89632 5.88338 9.12965 5.70005 9.31299C5.51672 9.49632 5.28338 9.58799 5.00005 9.58799C4.71672 9.58799 4.48338 9.49632 4.30005 9.31299L0.700049 5.71299C0.600049 5.61299 0.529215 5.50466 0.487549 5.38799C0.445882 5.27132 0.425049 5.14632 0.425049 5.01299C0.425049 4.87966 0.445882 4.75466 0.487549 4.63799C0.529215 4.52132 0.600049 4.41299 0.700049 4.31299L4.30005 0.712988C4.48338 0.529655 4.71672 0.437988 5.00005 0.437988C5.28338 0.437988 5.51672 0.529655 5.70005 0.712988C5.88338 0.896322 5.97505 1.12966 5.97505 1.41299C5.97505 1.69632 5.88338 1.92966 5.70005 2.11299L3.80005 4.01299H10.1C11.7167 4.01299 13.1042 4.53799 14.2625 5.58799C15.4209 6.63799 16 7.94632 16 9.51299C16 11.0797 15.4209 12.388 14.2625 13.438C13.1042 14.488 11.7167 15.013 10.1 15.013H4.00005Z" fill="#5A189A"/>
</svg>
